<svg width="17" height="19" viewBox="0 0 17 19" fill="none" xmlns="http://www.w3.org/2000/svg">
<g id="Icon" clip-path="url(#clip0_117_2473)">
<path id="Vector" d="M10.318 11.4173C10.318 11.4173 10.4436 11.2917 10.6947 11.0406C10.9458 10.7895 11.0714 10.309 11.0714 9.59919C11.0714 8.88937 10.8202 8.28334 10.318 7.78111C9.81578 7.27888 9.20975 7.02776 8.49993 7.02776C7.79011 7.02776 7.18408 7.27888 6.68185 7.78111C6.17962 8.28334 5.9285 8.88937 5.9285 9.59919C5.9285 10.309 6.17962 10.915 6.68185 11.4173C7.18408 11.9195 7.79011 12.1706 8.49993 12.1706C9.20975 12.1706 9.81578 11.9195 10.318 11.4173ZM11.3024 6.79674C11.3024 6.79674 11.4949 6.98926 11.88 7.3743C12.265 7.75935 12.4575 8.50098 12.4575 9.59919C12.4575 10.6974 12.0725 11.6316 11.3024 12.4016C10.5323 13.1717 9.59814 13.5568 8.49993 13.5568C7.40172 13.5568 6.46756 13.1717 5.69747 12.4016C4.92739 11.6316 4.54234 10.6974 4.54234 9.59919C4.54234 8.50098 4.92739 7.56682 5.69747 6.79674C6.46756 6.02665 7.40172 5.6416 8.49993 5.6416C9.59814 5.6416 10.5323 6.02665 11.3024 6.79674ZM13.2711 4.82799C13.2711 4.82799 13.3163 4.87319 13.4067 4.96359C13.4971 5.05399 13.5423 5.22642 13.5423 5.48089C13.5423 5.73535 13.4519 5.95299 13.2711 6.13379C13.0903 6.31459 12.8727 6.40499 12.6182 6.40499C12.3638 6.40499 12.1461 6.31459 11.9653 6.13379C11.7845 5.95299 11.6941 5.73535 11.6941 5.48089C11.6941 5.22642 11.7845 5.00879 11.9653 4.82799C12.1461 4.64718 12.3638 4.55678 12.6182 4.55678C12.8727 4.55678 13.0903 4.64718 13.2711 4.82799ZM9.26834 3.26604C9.26834 3.26604 9.15199 3.26688 8.91929 3.26855C8.68659 3.27023 8.5468 3.27107 8.49993 3.27107C8.45306 3.27107 8.19692 3.26939 7.73151 3.26604C7.26611 3.2627 6.91288 3.2627 6.67181 3.26604C6.43073 3.26939 6.10763 3.27944 5.7025 3.29618C5.29736 3.31292 4.9525 3.3464 4.6679 3.39662C4.3833 3.44685 4.1439 3.50879 3.94971 3.58245C3.61489 3.71638 3.32024 3.91057 3.06578 4.16504C2.81131 4.4195 2.61712 4.71415 2.48319 5.04897C2.40953 5.24316 2.34759 5.48256 2.29736 5.76716C2.24714 6.05176 2.21366 6.39662 2.19692 6.80176C2.18018 7.20689 2.17013 7.52999 2.16678 7.77107C2.16343 8.01214 2.16343 8.36537 2.16678 8.83078C2.17013 9.29618 2.17181 9.55232 2.17181 9.59919C2.17181 9.64607 2.17013 9.9022 2.16678 10.3676C2.16343 10.833 2.16343 11.1862 2.16678 11.4273C2.17013 11.6684 2.18018 11.9915 2.19692 12.3966C2.21366 12.8018 2.24714 13.1466 2.29736 13.4312C2.34759 13.7158 2.40953 13.9552 2.48319 14.1494C2.61712 14.4842 2.81131 14.7789 3.06578 15.0333C3.32024 15.2878 3.61489 15.482 3.94971 15.6159C4.1439 15.6896 4.3833 15.7515 4.6679 15.8018C4.9525 15.852 5.29736 15.8855 5.7025 15.9022C6.10763 15.9189 6.43073 15.929 6.67181 15.9323C6.91288 15.9357 7.26611 15.9357 7.73151 15.9323C8.19692 15.929 8.45306 15.9273 8.49993 15.9273C8.5468 15.9273 8.80294 15.929 9.26834 15.9323C9.73375 15.9357 10.087 15.9357 10.3281 15.9323C10.5691 15.929 10.8922 15.9189 11.2974 15.9022C11.7025 15.8855 12.0474 15.852 12.332 15.8018C12.6166 15.7515 12.856 15.6896 13.0502 15.6159C13.385 15.482 13.6796 15.2878 13.9341 15.0333C14.1885 14.7789 14.3827 14.4842 14.5167 14.1494C14.5903 13.9552 14.6523 13.7158 14.7025 13.4312C14.7527 13.1466 14.7862 12.8018 14.8029 12.3966C14.8197 11.9915 14.8297 11.6684 14.8331 11.4273C14.8364 11.1862 14.8364 10.833 14.8331 10.3676C14.8297 9.9022 14.8281 9.64607 14.8281 9.59919C14.8281 9.55232 14.8297 9.29618 14.8331 8.83078C14.8364 8.36537 14.8364 8.01214 14.8331 7.77107C14.8297 7.52999 14.8197 7.20689 14.8029 6.80176C14.7862 6.39662 14.7527 6.05176 14.7025 5.76716C14.6523 5.48256 14.5903 5.24316 14.5167 5.04897C14.3827 4.71415 14.1885 4.4195 13.9341 4.16504C13.6796 3.91057 13.385 3.71638 13.0502 3.58245C12.856 3.50879 12.6166 3.44685 12.332 3.39662C12.0474 3.3464 11.7025 3.31292 11.2974 3.29618C10.8922 3.27944 10.5691 3.26939 10.3281 3.26604C10.087 3.2627 9.73375 3.2627 9.26834 3.26604ZM16.164 6.41504C16.1975 7.00432 16.2142 8.06571 16.2142 9.59919C16.2142 11.1327 16.1975 12.1941 16.164 12.7833C16.097 14.1762 15.6818 15.2543 14.9185 16.0177C14.1551 16.7811 13.0769 17.1963 11.6841 17.2633C11.0948 17.2967 10.0334 17.3135 8.49993 17.3135C6.96645 17.3135 5.90506 17.2967 5.31578 17.2633C3.92292 17.1963 2.8448 16.7811 2.0814 16.0177C1.31801 15.2543 0.902832 14.1762 0.835868 12.7833C0.802386 12.1941 0.785645 11.1327 0.785645 9.59919C0.785645 8.06571 0.802386 7.00432 0.835868 6.41504C0.902832 5.02218 1.31801 3.94406 2.0814 3.18066C2.8448 2.41727 3.92292 2.00209 5.31578 1.93513C5.90506 1.90165 6.96645 1.8849 8.49993 1.8849C10.0334 1.8849 11.0948 1.90165 11.6841 1.93513C13.0769 2.00209 14.1551 2.41727 14.9185 3.18066C15.6818 3.94406 16.097 5.02218 16.164 6.41504Z" fill="#333333"/>
</g>
<defs>
<clipPath id="clip0_117_2473">
<rect width="15.44" height="18" fill="white" transform="matrix(1 0 0 -1 0.780029 18.5996)"/>
</clipPath>
</defs>
</svg>
