<svg width="16" height="19" viewBox="0 0 16 19" fill="none" xmlns="http://www.w3.org/2000/svg">
<g id="Icon" clip-path="url(#clip0_117_2463)">
<path id="Vector" d="M3.69887 6.87779V16.832H0.386281V6.87779H3.69887ZM3.90967 3.80413C3.91636 4.29297 3.74738 4.70145 3.40274 5.02958C3.0581 5.3577 2.60471 5.52176 2.04257 5.52176H2.0225C1.47375 5.52176 1.03207 5.3577 0.697464 5.02958C0.362859 4.70145 0.195557 4.29297 0.195557 3.80413C0.195557 3.30859 0.367878 2.89844 0.712521 2.57366C1.05716 2.24888 1.50721 2.0865 2.06265 2.0865C2.61809 2.0865 3.06312 2.24888 3.39772 2.57366C3.73233 2.89844 3.90298 3.30859 3.90967 3.80413ZM15.6141 11.1267V16.832H12.3116V11.5084C12.3116 10.8052 12.1761 10.2545 11.905 9.85603C11.634 9.45759 11.2107 9.25837 10.6352 9.25837C10.2136 9.25837 9.86061 9.37388 9.5762 9.60491C9.29178 9.83594 9.07931 10.1222 8.93878 10.4637C8.86516 10.6646 8.82836 10.9358 8.82836 11.2773V16.832H5.52581C5.53919 14.1602 5.54588 11.9939 5.54588 10.3331C5.54588 8.67243 5.54254 7.68136 5.53585 7.35993L5.52581 6.87779H8.82836V8.32422H8.80828C8.94212 8.10993 9.07931 7.92243 9.21984 7.76172C9.36038 7.601 9.54943 7.4269 9.787 7.2394C10.0246 7.0519 10.3157 6.90625 10.6603 6.80246C11.005 6.69866 11.3881 6.64676 11.8097 6.64676C12.954 6.64676 13.8742 7.02679 14.5702 7.78683C15.2661 8.54688 15.6141 9.66016 15.6141 11.1267Z" fill="#333333"/>
</g>
<defs>
<clipPath id="clip0_117_2463">
<rect width="15.43" height="18" fill="white" transform="matrix(1 0 0 -1 0.189941 18.5996)"/>
</clipPath>
</defs>
</svg>
