<svg width="18" height="19" viewBox="0 0 18 19" fill="none" xmlns="http://www.w3.org/2000/svg">
<g id="Icon" clip-path="url(#clip0_117_2453)">
<path id="Vector" d="M17.2151 4.69796C16.7665 5.35421 16.2241 5.91337 15.5879 6.37542C15.5946 6.46917 15.5979 6.60979 15.5979 6.79729C15.5979 7.66783 15.4707 8.53669 15.2162 9.40388C14.9618 10.2711 14.5751 11.1031 14.0561 11.9C13.5371 12.6968 12.9194 13.4016 12.2028 14.0144C11.4863 14.6271 10.6225 15.1159 9.61133 15.4809C8.60017 15.8458 7.51869 16.0283 6.36691 16.0283C4.55218 16.0283 2.89146 15.5428 1.38477 14.5718C1.61914 14.5986 1.8803 14.612 2.16825 14.612C3.67494 14.612 5.01758 14.15 6.19615 13.2259C5.49302 13.2125 4.86356 12.9965 4.30776 12.578C3.75195 12.1595 3.37026 11.6254 3.16267 10.9759C3.38365 11.0093 3.58789 11.0261 3.77539 11.0261C4.06334 11.0261 4.34794 10.9893 4.62919 10.9156C3.87919 10.7616 3.25809 10.3883 2.7659 9.79562C2.27372 9.20299 2.02762 8.51493 2.02762 7.73145V7.69127C2.48298 7.94573 2.97182 8.08301 3.49414 8.1031C3.05218 7.80845 2.70061 7.42341 2.43945 6.94796C2.17829 6.47252 2.04771 5.95689 2.04771 5.40109C2.04771 4.8118 2.19503 4.26604 2.48968 3.76381C3.29994 4.76158 4.28599 5.56013 5.44782 6.15946C6.60965 6.75879 7.85352 7.09194 9.17941 7.1589C9.12584 6.90444 9.09905 6.65667 9.09905 6.4156C9.09905 5.51828 9.41546 4.75321 10.0483 4.1204C10.6811 3.48758 11.4461 3.17118 12.3435 3.17118C13.281 3.17118 14.0711 3.5127 14.714 4.19573C15.4439 4.05511 16.1303 3.79395 16.7732 3.41225C16.5254 4.18234 16.0499 4.77832 15.3468 5.2002C15.9696 5.13323 16.5924 4.96582 17.2151 4.69796Z" fill="#333333"/>
</g>
<defs>
<clipPath id="clip0_117_2453">
<rect width="16.72" height="18" fill="white" transform="matrix(1 0 0 -1 0.939941 18.5996)"/>
</clipPath>
</defs>
</svg>
