<svg width="17" height="19" viewBox="0 0 17 19" fill="none" xmlns="http://www.w3.org/2000/svg">
<g id="Icon" clip-path="url(#clip0_117_2458)">
<path id="Vector" d="M10.2574 10.8701C10.2574 10.8701 10.3227 10.7889 10.4533 10.6265C10.5838 10.4641 10.6927 10.383 10.7797 10.383C10.8668 10.383 11.1932 10.5303 11.7591 10.8249C12.3249 11.1196 12.6246 11.297 12.6581 11.3573C12.6715 11.3908 12.6782 11.441 12.6782 11.508C12.6782 11.7289 12.6212 11.9834 12.5074 12.2713C12.4003 12.5325 12.1625 12.7518 11.7942 12.9293C11.4259 13.1067 11.0844 13.1955 10.7697 13.1955C10.388 13.1955 9.75181 12.9879 8.86119 12.5727C8.20494 12.2713 7.63574 11.8763 7.1536 11.3874C6.67146 10.8986 6.17592 10.2792 5.66699 9.52916C5.18485 8.81264 4.94713 8.16309 4.95382 7.5805V7.50014C4.97391 6.89076 5.22168 6.36175 5.69713 5.91309C5.85784 5.76576 6.03195 5.6921 6.21945 5.6921C6.25963 5.6921 6.31989 5.69713 6.40025 5.70717C6.48061 5.71722 6.54422 5.72224 6.5911 5.72224C6.71833 5.72224 6.80706 5.744 6.85728 5.78753C6.90751 5.83105 6.9594 5.92313 7.01297 6.06376C7.06655 6.19768 7.17704 6.49233 7.34445 6.94768C7.51186 7.40304 7.59556 7.65416 7.59556 7.70103C7.59556 7.84166 7.48005 8.03418 7.24902 8.2786C7.018 8.52302 6.90248 8.67871 6.90248 8.74568C6.90248 8.79255 6.91922 8.84277 6.95271 8.89635C7.18039 9.38518 7.5219 9.84389 7.97726 10.2725C8.35226 10.6274 8.85784 10.9655 9.494 11.287C9.57436 11.3338 9.64802 11.3573 9.71498 11.3573C9.81543 11.3573 9.99623 11.1949 10.2574 10.8701ZM8.74065 15.7066C9.5911 15.7066 10.4064 15.5392 11.1865 15.2044C11.9667 14.8696 12.638 14.4209 13.2005 13.8584C13.763 13.2959 14.2116 12.6246 14.5465 11.8444C14.8813 11.0643 15.0487 10.249 15.0487 9.39858C15.0487 8.54813 14.8813 7.73284 14.5465 6.95271C14.2116 6.17257 13.763 5.50126 13.2005 4.93876C12.638 4.37626 11.9667 3.9276 11.1865 3.59277C10.4064 3.25795 9.5911 3.09054 8.74065 3.09054C7.89021 3.09054 7.07492 3.25795 6.29478 3.59277C5.51465 3.9276 4.84333 4.37626 4.28083 4.93876C3.71833 5.50126 3.26967 6.17257 2.93485 6.95271C2.60003 7.73284 2.43262 8.54813 2.43262 9.39858C2.43262 10.758 2.8344 11.9901 3.63797 13.095L2.84445 15.4354L5.27525 14.662C6.33329 15.3584 7.48842 15.7066 8.74065 15.7066ZM5.80259 2.4276C5.80259 2.4276 6.03613 2.32715 6.50321 2.12626C6.97028 1.92536 7.7161 1.82492 8.74065 1.82492C9.76521 1.82492 10.7446 2.02581 11.6787 2.4276C12.6129 2.82938 13.4181 3.36844 14.0944 4.04478C14.7708 4.72112 15.3098 5.52637 15.7116 6.46052C16.1134 7.39467 16.3143 8.37402 16.3143 9.39858C16.3143 10.4231 16.1134 11.4025 15.7116 12.3366C15.3098 13.2708 14.7708 14.076 14.0944 14.7524C13.4181 15.4287 12.6129 15.9678 11.6787 16.3696C10.7446 16.7713 9.76521 16.9722 8.74065 16.9722C7.43485 16.9722 6.21275 16.6575 5.07436 16.028L0.885742 17.374L2.25181 13.3059C1.5286 12.114 1.16699 10.8115 1.16699 9.39858C1.16699 8.37402 1.36789 7.39467 1.76967 6.46052C2.17146 5.52637 2.71052 4.72112 3.38686 4.04478C4.0632 3.36844 4.86844 2.82938 5.80259 2.4276Z" fill="#333333"/>
</g>
<defs>
<clipPath id="clip0_117_2458">
<rect width="15.44" height="18" fill="white" transform="matrix(1 0 0 -1 0.880127 18.5996)"/>
</clipPath>
</defs>
</svg>
