<svg width="19" height="19" viewBox="0 0 19 19" fill="none" xmlns="http://www.w3.org/2000/svg">
<g id="Icon" clip-path="url(#clip0_117_2468)">
<path id="Vector" d="M7.34171 11.93L12.2033 9.41881L7.34171 6.87751V11.93ZM9.19996 3.27148C10.325 3.27148 11.4115 3.28655 12.4595 3.31669C13.5074 3.34682 14.2759 3.37863 14.7647 3.41211L15.498 3.45229C15.5047 3.45229 15.5616 3.45731 15.6687 3.46735C15.7759 3.4774 15.8529 3.48744 15.8997 3.49749C15.9466 3.50753 16.0253 3.5226 16.1358 3.54269C16.2463 3.56278 16.3417 3.58957 16.4221 3.62305C16.5024 3.65653 16.5962 3.70006 16.7033 3.75363C16.8105 3.8072 16.9143 3.87249 17.0147 3.9495C17.1151 4.02651 17.2122 4.11523 17.306 4.21568C17.3462 4.25586 17.3981 4.3178 17.4617 4.40151C17.5253 4.48521 17.6224 4.68108 17.753 4.98912C17.8836 5.29715 17.9723 5.63532 18.0192 6.00363C18.0727 6.4322 18.1146 6.88923 18.1447 7.37472C18.1749 7.86021 18.1933 8.24023 18.2 8.51479V8.91657V10.2826C18.2067 11.2536 18.1464 12.2246 18.0192 13.1956C17.9723 13.5639 17.8886 13.897 17.768 14.195C17.6475 14.493 17.5404 14.6989 17.4466 14.8128L17.306 14.9835C17.2122 15.084 17.1151 15.1727 17.0147 15.2497C16.9143 15.3267 16.8105 15.3903 16.7033 15.4406C16.5962 15.4908 16.5024 15.5326 16.4221 15.5661C16.3417 15.5996 16.2463 15.6264 16.1358 15.6465C16.0253 15.6666 15.9449 15.6816 15.8947 15.6917C15.8445 15.7017 15.7675 15.7118 15.6637 15.7218C15.5599 15.7319 15.5047 15.7369 15.498 15.7369C13.8172 15.8641 11.7178 15.9277 9.19996 15.9277C7.8138 15.9143 6.61012 15.8926 5.58892 15.8624C4.56771 15.8323 3.89639 15.8072 3.57497 15.7871L3.08278 15.7469L2.72117 15.7068C2.4801 15.6733 2.29762 15.6398 2.17374 15.6063C2.04985 15.5728 1.87909 15.5025 1.66146 15.3954C1.44383 15.2882 1.25465 15.1509 1.09394 14.9835C1.05376 14.9434 1.00186 14.8814 0.938246 14.7977C0.87463 14.714 0.777532 14.5181 0.646952 14.2101C0.516371 13.9021 0.427644 13.5639 0.380769 13.1956C0.327197 12.767 0.285345 12.31 0.255211 11.8245C0.225077 11.339 0.206662 10.959 0.199965 10.6844V10.2826V8.91657C0.193269 7.94559 0.253537 6.97461 0.380769 6.00363C0.427644 5.63532 0.511349 5.30218 0.631885 5.00419C0.75242 4.70619 0.859563 4.50028 0.953313 4.38644L1.09394 4.21568C1.18769 4.11523 1.28479 4.02651 1.38523 3.9495C1.48568 3.87249 1.58947 3.8072 1.69662 3.75363C1.80376 3.70006 1.89751 3.65653 1.97787 3.62305C2.05822 3.58957 2.15365 3.56278 2.26414 3.54269C2.37463 3.5226 2.45331 3.50753 2.50019 3.49749C2.54706 3.48744 2.62407 3.4774 2.73122 3.46735C2.83836 3.45731 2.89528 3.45229 2.90197 3.45229C4.58278 3.33175 6.68211 3.27148 9.19996 3.27148Z" fill="#333333"/>
</g>
<defs>
<clipPath id="clip0_117_2468">
<rect width="18" height="18" fill="white" transform="matrix(1 0 0 -1 0.199951 18.5996)"/>
</clipPath>
</defs>
</svg>
